<svg xmlns="http://www.w3.org/2000/svg" xmlns:xlink="http://www.w3.org/1999/xlink" viewBox="0 0 1377.88 1377.88"><defs><style>.cls-1{fill:url(#linear-gradient);}.cls-2{fill:url(#linear-gradient-2);}.cls-3{fill:url(#linear-gradient-3);}.cls-4{fill:url(#linear-gradient-4);}.cls-5{fill:url(#linear-gradient-5);}.cls-6{fill:url(#linear-gradient-6);}.cls-7{fill:url(#linear-gradient-7);}.cls-8{fill:url(#linear-gradient-8);}.cls-9{fill:url(#linear-gradient-9);}.cls-10{fill:url(#linear-gradient-10);}.cls-11{fill:url(#linear-gradient-11);}.cls-12{fill:url(#linear-gradient-12);}.cls-13,.cls-14,.cls-15,.cls-16,.cls-17,.cls-18,.cls-19,.cls-20,.cls-21,.cls-22,.cls-23,.cls-24{fill-rule:evenodd;}.cls-13{fill:url(#linear-gradient-13);}.cls-14{fill:url(#linear-gradient-14);}.cls-15{fill:url(#linear-gradient-15);}.cls-16{fill:url(#linear-gradient-16);}.cls-17{fill:url(#linear-gradient-17);}.cls-18{fill:url(#linear-gradient-18);}.cls-19{fill:url(#linear-gradient-19);}.cls-20{fill:url(#linear-gradient-20);}.cls-21{fill:url(#linear-gradient-21);}.cls-22{fill:url(#linear-gradient-22);}.cls-23{fill:url(#linear-gradient-23);}.cls-24{fill:url(#linear-gradient-24);}</style><linearGradient id="linear-gradient" x1="329.29" y1="803.3" x2="329.29" y2="701.6" gradientUnits="userSpaceOnUse"><stop offset="0" stop-color="#c0bfbf"/><stop offset="0.2" stop-color="#fff"/><stop offset="0.43" stop-color="#c0bfbf"/><stop offset="0.73" stop-color="#fff"/><stop offset="1" stop-color="#969495"/></linearGradient><linearGradient id="linear-gradient-2" x1="404.87" y1="836" x2="404.87" y2="727.75" xlink:href="#linear-gradient"/><linearGradient id="linear-gradient-3" x1="474.82" y1="837.88" x2="474.82" y2="725.86" xlink:href="#linear-gradient"/><linearGradient id="linear-gradient-4" x1="553.25" y1="837.88" x2="553.25" y2="725.86" xlink:href="#linear-gradient"/><linearGradient id="linear-gradient-5" x1="632.84" y1="805.19" x2="632.84" y2="684.89" xlink:href="#linear-gradient"/><linearGradient id="linear-gradient-6" x1="710.11" y1="805.19" x2="710.11" y2="725.86" xlink:href="#linear-gradient"/><linearGradient id="linear-gradient-7" x1="764.32" y1="803.3" x2="764.32" y2="694.33" xlink:href="#linear-gradient"/><linearGradient id="linear-gradient-8" x1="816.36" y1="805.19" x2="816.36" y2="725.86" xlink:href="#linear-gradient"/><linearGradient id="linear-gradient-9" x1="894.79" y1="837.88" x2="894.79" y2="725.86" xlink:href="#linear-gradient"/><linearGradient id="linear-gradient-10" x1="972.13" y1="803.3" x2="972.13" y2="725.86" xlink:href="#linear-gradient"/><linearGradient id="linear-gradient-11" x1="1023.09" y1="803.3" x2="1023.09" y2="695.64" xlink:href="#linear-gradient"/><linearGradient id="linear-gradient-12" x1="1061.69" y1="803.3" x2="1061.69" y2="725.86" xlink:href="#linear-gradient"/><linearGradient id="linear-gradient-13" x1="685.77" y1="1120.31" x2="685.77" y2="889.05" xlink:href="#linear-gradient"/><linearGradient id="linear-gradient-14" x1="345.15" y1="645.23" x2="345.15" y2="540.58" xlink:href="#linear-gradient"/><linearGradient id="linear-gradient-15" x1="686.35" y1="455.4" x2="686.35" y2="303.74" xlink:href="#linear-gradient"/><linearGradient id="linear-gradient-16" x1="1026.4" y1="645.23" x2="1026.4" y2="530.73" xlink:href="#linear-gradient"/><linearGradient id="linear-gradient-17" x1="457.65" y1="645.23" x2="457.65" y2="355.54" xlink:href="#linear-gradient"/><linearGradient id="linear-gradient-18" x1="599.07" y1="426.48" x2="599.07" y2="395.03" gradientTransform="matrix(-1, 0, 0, 1, 1601.91, 0)" xlink:href="#linear-gradient"/><linearGradient id="linear-gradient-19" x1="691.04" y1="645.23" x2="691.04" y2="355.54" gradientTransform="matrix(-1, 0, 0, 1, 1601.91, 0)" xlink:href="#linear-gradient"/><linearGradient id="linear-gradient-20" x1="686.16" y1="645.22" x2="686.16" y2="363.37" xlink:href="#linear-gradient"/><linearGradient id="linear-gradient-21" x1="685.77" y1="679.03" x2="685.77" y2="659.9" xlink:href="#linear-gradient"/><linearGradient id="linear-gradient-22" x1="686.16" y1="869.91" x2="686.16" y2="850.77" xlink:href="#linear-gradient"/><linearGradient id="linear-gradient-23" x1="685.75" y1="1063.74" x2="685.75" y2="907.9" xlink:href="#linear-gradient"/><linearGradient id="linear-gradient-24" x1="685.77" y1="645.23" x2="685.77" y2="559.9" xlink:href="#linear-gradient"/></defs><g id="Emblems"><path class="cls-1" d="M288.85,803.3V701.6H335.4c8.82,0,16,2.76,21.84,8.13a26.4,26.4,0,0,1,8.69,20.2,27,27,0,0,1-8.55,20.2,28.27,28.27,0,0,1,12.35,23.68,27.47,27.47,0,0,1-9.09,21.07c-6.11,5.66-13.57,8.42-22.53,8.42Zm21.58-80.49v18.45h24.7a8.33,8.33,0,0,0,8.27-7.7,3.75,3.75,0,0,0,.14-1.45c0-5.38-3.53-9.3-8.41-9.3Zm0,38.65v20.63h27.41c5.43,0,9.5-4.5,9.5-10.32s-4.07-10.31-9.5-10.31Z"/><path class="cls-2" d="M395,802.72l-26.74-75h21l15.33,46.64,15.88-46.64h21l-30,83.4C405,828.59,394.83,836,377.46,836H375V815.22h2.58c8.82,0,14.38-3.78,17-11.34Z"/><path class="cls-3" d="M447.75,737.2c6.38-7.56,14.38-11.34,23.88-11.34a30.58,30.58,0,0,1,19.54,7v-5.09h20.22v74c0,10.31-3.39,18.88-10.31,25.71-6.79,7-15.2,10.46-25.38,10.46a37.58,37.58,0,0,1-21.84-6.68c-6.38-4.5-10.72-10-12.89-16.85l20.08-5.09c2.17,4.65,7.87,8,14.25,8,8.82,0,15.87-6.54,15.87-15.25v-3.93a29.4,29.4,0,0,1-19.54,7.12c-9.5,0-17.5-3.77-23.88-11.33s-9.5-17.15-9.5-28.33C438.25,754.19,441.37,744.75,447.75,737.2Zm11.67,28.47c0,10,6.92,18,15.74,18a14.39,14.39,0,0,0,11.13-5.23,18.36,18.36,0,0,0,4.61-12.79c0-10.46-7-18.3-15.74-18.3S459.42,755.21,459.42,765.67Z"/><path class="cls-4" d="M526.18,737.2c6.38-7.56,14.38-11.34,23.88-11.34a30.58,30.58,0,0,1,19.54,7v-5.09h20.22v74c0,10.31-3.39,18.88-10.31,25.71-6.79,7-15.2,10.46-25.38,10.46a37.58,37.58,0,0,1-21.84-6.68c-6.38-4.5-10.72-10-12.89-16.85l20.08-5.09c2.17,4.65,7.87,8,14.25,8,8.82,0,15.87-6.54,15.87-15.25v-3.93a29.4,29.4,0,0,1-19.54,7.12c-9.5,0-17.5-3.77-23.88-11.33s-9.5-17.15-9.5-28.33C516.68,754.19,519.8,744.75,526.18,737.2Zm11.67,28.47c0,10,6.92,18,15.74,18a14.39,14.39,0,0,0,11.13-5.23,18.36,18.36,0,0,0,4.61-12.79c0-10.46-7.05-18.3-15.74-18.3S537.85,755.21,537.85,765.67Z"/><path class="cls-5" d="M645.05,727.9a26.77,26.77,0,0,0-14.93-13.37l-5.83,9.88-9.5-6.54,3.53-6c-3.26-.29-6.79-.43-10.45-.43v-19a98.62,98.62,0,0,1,20.76,1.89l5.7-9.44,9.5,6.39L639.89,698c20.63,8.86,30.53,29.64,30.67,67.27,0,11.47-3.66,21.06-10.86,28.62s-16.14,11.33-26.86,11.33-19.82-3.77-27-11.33-10.72-17.15-10.72-28.33,3.53-20.63,10.72-28.19,16.29-11.48,27-11.48A38.52,38.52,0,0,1,645.05,727.9Zm-.54,50.56a18.58,18.58,0,0,0,4.88-12.93,18,18,0,0,0-4.88-12.79,14.78,14.78,0,0,0-11.67-5.37A15.16,15.16,0,0,0,621,752.6a20,20,0,0,0,0,25.86,15.79,15.79,0,0,0,23.48,0Z"/><path class="cls-6" d="M683,737.2c6.38-7.56,14.38-11.34,23.88-11.34a30.56,30.56,0,0,1,19.54,7v-5.09h20.22V803.3H726.46v-5.23a29.4,29.4,0,0,1-19.54,7.12c-9.5,0-17.5-3.77-23.88-11.33s-9.5-17.15-9.5-28.33C673.54,754.19,676.66,744.75,683,737.2Zm11.67,28.18c0,10.46,6.92,18.31,15.74,18.31s15.74-7.85,15.74-18.31a18.33,18.33,0,0,0-4.61-12.78,14.39,14.39,0,0,0-11.13-5.23C701.63,747.37,694.71,755.36,694.71,765.38Z"/><path class="cls-7" d="M754.14,803.3v-109H774.5v109Z"/><path class="cls-8" d="M789.29,737.2c6.37-7.56,14.38-11.34,23.88-11.34a30.58,30.58,0,0,1,19.54,7v-5.09h20.22V803.3H832.71v-5.23a29.4,29.4,0,0,1-19.54,7.12c-9.5,0-17.51-3.77-23.88-11.33s-9.5-17.15-9.5-28.33C779.79,754.19,782.91,744.75,789.29,737.2ZM801,765.38c0,10.46,6.92,18.31,15.74,18.31s15.74-7.85,15.74-18.31a18.33,18.33,0,0,0-4.61-12.78,14.41,14.41,0,0,0-11.13-5.23C807.88,747.37,801,755.36,801,765.38Z"/><path class="cls-9" d="M867.72,737.2c6.37-7.56,14.38-11.34,23.88-11.34a30.58,30.58,0,0,1,19.54,7v-5.09h20.22v74c0,10.31-3.39,18.88-10.31,25.71-6.79,7-15.2,10.46-25.38,10.46a37.61,37.61,0,0,1-21.85-6.68c-6.37-4.5-10.72-10-12.89-16.85L881,809.26c2.17,4.65,7.87,8,14.24,8,8.82,0,15.88-6.54,15.88-15.25v-3.93a29.4,29.4,0,0,1-19.54,7.12c-9.5,0-17.51-3.77-23.88-11.33s-9.5-17.15-9.5-28.33C858.22,754.19,861.34,744.75,867.72,737.2Zm11.67,28.47c0,10,6.92,18,15.74,18a14.37,14.37,0,0,0,11.12-5.23,18.32,18.32,0,0,0,4.62-12.79c0-10.46-7.06-18.3-15.74-18.3S879.39,755.21,879.39,765.67Z"/><path class="cls-10" d="M938.82,727.75h20.35v7.7a22.71,22.71,0,0,1,19.27-9.59,25.15,25.15,0,0,1,19.14,8.28c5.29,5.53,7.87,12.35,7.87,20.64V803.3H985.09V760.59c0-8.28-5.43-14.53-12.89-14.53s-13,6.25-13,14.53V803.3H938.82Z"/><path class="cls-11" d="M1010.47,709a13.56,13.56,0,0,1,3.52-9.59,12.29,12.29,0,0,1,9.1-3.78,11.75,11.75,0,0,1,8.95,3.78,14.39,14.39,0,0,1,0,19.18,11.75,11.75,0,0,1-8.95,3.78,12.29,12.29,0,0,1-9.1-3.78A13.56,13.56,0,0,1,1010.47,709Zm2.44,94.29V727.75h20.35V803.3Z"/><path class="cls-12" d="M1061.08,735.6c4.75-6.54,11.94-9.74,21.58-9.74v23.25a12.69,12.69,0,0,0-7.33-2c-8.14,0-14.25,6.68-14.25,15.54V803.3h-20.36V727.75h20.36Z"/></g><g id="Text"><polygon class="cls-13" points="1039.36 889.05 1039.36 916.17 685.77 1120.31 332.19 916.17 332.19 889.05 358.11 889.05 358.11 901.21 685.77 1090.39 1013.43 901.21 1013.43 889.05 1039.36 889.05"/><path class="cls-14" d="M332.18,540.58V645.23h25.94V558.07C348.15,555,339.1,548.41,332.18,540.58Z"/><path class="cls-15" d="M915.1,436.3c-5.56,5.67-11.86,12.08-18.77,19.1L685.78,333.66,476.35,454.6q-9.41-9.54-18.75-19.09L685.78,303.74Z"/><path class="cls-16" d="M1039.37,530.73v114.5h-25.94v-92.1a50,50,0,0,0,14.65-9.8l2.09-2c.44-.44,1-1,2.07-2A49.34,49.34,0,0,0,1039.37,530.73Z"/><path class="cls-17" d="M418.74,439.38a5.67,5.67,0,0,1,3.61-1.48,5,5,0,0,1,3.61,1.52c22.44,22.78,132.26,134.66,202.2,205.81h14.49C546.51,548.3,418.09,417.48,418.09,417.48l-4.3-.61-36.24,36.24a1.44,1.44,0,0,1-2.05,0l-.61-.61a1.44,1.44,0,0,1,0-2.05l36.54-36.59-.61-3.8-8.51-8.71L395,403l.73,3.27-5.1,1.1.72,3.27-5.09,1.11L387,415l-5.06,1.1.69,3.27-5.06,1.1.72,3.31-5.1,1.1.73,3.27-5.1,1.14.72,3.27-5.09,1.11.72,3.27-5.1,1.14.73,3.27-4.3,8-9.93-9.89L315,407.86l17.61,9.5,3.73-.83-.73-3.27,5.1-1.11-.72-3.27,5.06-1.14-.69-3.27,5.06-1.1-.72-3.31,5.09-1.1-.72-3.27,5.1-1.11-.73-3.3,5.1-1.11-.72-3.27,5.09-1.1-.72-3.31,5.09-1.1-.72-3.27,5.1-1.11-1.29-5.62-5.21-5.14L365.3,366l-37.42,37.42a1.44,1.44,0,0,1-2.05,0l-.65-.64a1.48,1.48,0,0,1,0-2l37.39-37.34-.46-4c-6.35-5.14-13.46-5.17-31.45,0-18.9,5.36-41.22,21.14-51.6,34.45-11.91,15.33-5.71,34.31,6.16,46.06L329,483.5c2.39-2.44,5-5,7.53-7.57C323.32,463,305,444.86,292.4,432.19a34.37,34.37,0,0,1-8.82-14.56,1.13,1.13,0,0,1,.53-1.22,1.11,1.11,0,0,1,1.3.19c8.25,8.25,41.49,41.42,52.78,52.71l2.51,2.47c6.73-6.65,12.55-12.28,13.23-13l-18.63,31,0,.11a38,38,0,0,0,9.32,40.73c2.51,2.44,2.17,2.13,4.18,4.07a38.48,38.48,0,0,0,13.5,8.41,20.84,20.84,0,0,0,21.87-5c9.2-9.24,22.89-23,29.89-30a6.27,6.27,0,0,1,8.9,0l.64.65-34.34,34.49a26.61,26.61,0,0,1-6.12,4.6c.12.15.27.3.38.42,2.4,2.39,5.82,5.74,9.32,9.24l39.78-39.78,3.72,3.73-39.74,39.74c2.67,2.62,5.1,5.06,6.93,6.88a8.59,8.59,0,0,0,6.19,2.51,8.76,8.76,0,0,0,5.86-2.24l2.85,2.81,5.06-2.39,3.23,3.19L424.29,577l3.88,3.84,5.05-2.4,3.2,3.2-2.36,5.06,3.84,3.84,5.06-2.4,3.19,3.19-2.35,5.06,3.84,3.84,5.05-2.39,3.24,3.19-2.4,5.06,3.88,3.84,5.06-2.39,3.19,3.19-2.36,5.06,3.85,3.84,5.05-2.4,3.2,3.2-2.36,5,3.84,3.85,5.06-2.4,3.23,3.19-2.36,5a19.23,19.23,0,0,0,12.51,4.48,19.52,19.52,0,0,0,15.1-31.79l-5.78,2.74-3.19-3.19,2.74-5.9-3.43-3.38-5.85,2.77-3.24-3.19,2.78-5.9L491,588.38l-5.86,2.77L481.94,588l2.74-5.89-3.43-3.39-5.85,2.78-3.23-3.2,2.77-5.89-1.71-1.67c-1.52.3-3.08.68-4.64,1a44.31,44.31,0,0,1-38.45-11.9l-1.48-1.44a10.59,10.59,0,0,1,0-14.42l15.14-15.21,1.52,1.52a5.08,5.08,0,0,1,1.48,3.58,4.77,4.77,0,0,1-1.44,3.53c-3.5,3.5-8.67,8.71-11.56,11.64a3,3,0,0,0,0,4.26c.42.42.88.91,1.41,1.41a36.12,36.12,0,0,0,32.36,9.88l7.19-1.4a22,22,0,0,1,19.62,6s35.9,34,79.75,76.13h45L425.77,450.37a4.7,4.7,0,0,0-6.62,0c-4.86,4.83-17.07,17.38-17.07,17.38-3.58-3-.34-11.71,4.37-16.58C411.32,446.11,414.1,443.07,418.74,439.38Z"/><path class="cls-18" d="M1017.93,426.48l.7-.7-.52-.12Zm.22-2,.45-2-4.88-1.06-.45,2Zm-4.39-4.29.48-2.2-4.87-1.1-.49,2.21Zm-4.21-4.46.43-2-5-1.1-.44,2.05Zm-4.46-4.41.45-2-5.06-1.1-.43,2Zm-4.4-4.38.45-2-4.91-1.07-.45,2Zm-4.34-4.43.44-2-4.9-1.06-.45,2ZM992,398.1l.44-2L987.51,395l-.44,2Z"/><path class="cls-19" d="M962.06,451.13c4.72,4.87,8,13.62,4.38,16.58,0,0-12.21-12.55-17.08-17.38a4.68,4.68,0,0,0-6.61,0L749.37,645.23h45c43.84-42.13,79.74-76.13,79.74-76.13a22,22,0,0,1,19.62-6l7.19,1.4a36.12,36.12,0,0,0,32.36-9.88c.54-.5,1-1,1.41-1.41a3,3,0,0,0,0-4.26c-2.89-2.93-8.06-8.14-11.56-11.64a4.82,4.82,0,0,1-1.45-3.53,5.09,5.09,0,0,1,1.49-3.58l1.52-1.52,15.13,15.21a10.58,10.58,0,0,1,0,14.42l-1.49,1.44a44.3,44.3,0,0,1-38.45,11.9c-1.55-.3-3.11-.68-4.63-1l-1.72,1.67,2.78,5.89-3.23,3.2-5.86-2.78-3.42,3.39,2.74,5.89-3.2,3.19-5.85-2.77-3.46,3.38,2.77,5.9-3.23,3.19-5.86-2.77-3.42,3.38,2.74,5.9-3.2,3.19-5.78-2.74a19.6,19.6,0,0,0-4.33,12.25,19.5,19.5,0,0,0,31.94,15.06l-2.36-5,3.24-3.19,5,2.4,3.85-3.85-2.36-5,3.19-3.2,5.06,2.4,3.84-3.84-2.36-5.06,3.2-3.19,5.06,2.39L915,606.1,912.59,601l3.23-3.19,5.06,2.39,3.84-3.84-2.36-5.06,3.2-3.19,5.05,2.4,3.85-3.84-2.36-5.06,3.19-3.2,5.06,2.4,3.88-3.84-2.4-5.06,3.24-3.19,5,2.39,2.86-2.81a8.72,8.72,0,0,0,5.85,2.24,8.62,8.62,0,0,0,6.2-2.51c1.83-1.82,4.26-4.26,6.92-6.88l-39.74-39.74,3.73-3.73,39.78,39.78c3.49-3.5,6.92-6.85,9.31-9.24a3.89,3.89,0,0,0,.38-.42,27,27,0,0,1-6.12-4.6L945,508.75l.65-.65a6.27,6.27,0,0,1,8.9,0c7,7,20.68,20.76,29.89,30a20.82,20.82,0,0,0,21.86,5,38.48,38.48,0,0,0,13.5-8.41c2-1.94,1.68-1.63,4.19-4.07a38,38,0,0,0,9.31-40.73l0-.11-18.64-31c.69.69,6.5,6.32,13.24,13l2.51-2.47c11.29-11.29,44.53-44.46,52.78-52.71a1.09,1.09,0,0,1,1.29-.19,1.14,1.14,0,0,1,.54,1.22,34.49,34.49,0,0,1-8.83,14.56c-12.59,12.67-30.92,30.81-44.11,43.74,2.55,2.55,5.13,5.13,7.53,7.57l43.77-43.62c11.86-11.75,18.06-30.73,6.16-46.06-10.38-13.31-32.7-29.09-51.6-34.45-18-5.13-25.1-5.1-31.45,0l-.46,4,37.38,37.34a1.48,1.48,0,0,1,0,2l-.65.64a1.44,1.44,0,0,1-2,0L1003.21,366l-3.84.23-5.21,5.14L992.87,377l5.09,1.11-.72,3.27,5.1,1.1-.73,3.31,5.1,1.1-.72,3.27,5.09,1.11-.72,3.3,5.1,1.11-.73,3.27,5.1,1.1-.72,3.31,5.05,1.1-.68,3.27,5.06,1.14-.72,3.27,5.09,1.11-.72,3.27,3.73.83,17.6-9.5-31.6,31.6-9.92,9.89-4.3-8,.72-3.27-5.09-1.14.72-3.27-5.1-1.11.72-3.27-5.09-1.14.72-3.27-5.09-1.1.72-3.31-5.06-1.1.68-3.27-5-1.1.72-3.31-5.1-1.11.73-3.27-5.1-1.1.72-3.27-7.26-1.6-8.52,8.71-.61,3.8,36.55,36.59a1.44,1.44,0,0,1,0,2.05l-.61.61a1.44,1.44,0,0,1-2,0l-36.25-36.24-4.29.61S822,548.3,725.87,645.23h14.49c69.93-71.15,179.76-183,202.2-205.81a5,5,0,0,1,3.61-1.52,5.67,5.67,0,0,1,3.61,1.48C954.42,443.07,957.2,446.11,962.06,451.13Z"/><path class="cls-20" d="M664.58,645.22q-52.37-52.66-104.47-105.55V477.53l125.66-73.72,125.65,73.72v62.16Q759.3,592.55,707,645.22ZM680,504.67H655.67v24.39H680V504.67Zm35.84,0H691.49v24.39h24.39V504.67ZM680,469.84H655.67v24.38H680V469.84Zm35.84,0H691.49v24.38h24.39V469.84Zm-167.8,22.77H524.83V456.28l35.28-20.37V421.23l27.54-14.94V420l98.12-56.64,161.71,93.36v35.88H824.23V468.87L685.77,388.92l-137.69,79.5v24.19Z"/><polygon class="cls-21" points="1083.02 659.9 288.51 659.9 288.51 679.03 1083.02 679.03 1083.02 659.9 1083.02 659.9"/><polygon class="cls-22" points="1083.41 850.77 288.9 850.77 288.9 869.91 1083.41 869.91 1083.41 850.77 1083.41 850.77"/><path class="cls-23" d="M415.88,907.9l269.89,155.84L955.63,907.9Zm248.18,97.69a1,1,0,0,0,1.29.12,14.46,14.46,0,0,1,8.37-2.51h.19c5.47.07,10.72,2.66,15.89,3.8,8.33,1.82,17.19.23,25-2.93,10.42-4.22,21.07-7.83,32.36-8.63,3.8-.27,13.77-.34,21.68-.34v6.69c-22.29,0-29.44-.8-51.84,8.4-28.78,11.87-37.65-5-48.56,1-6.12,3.39-4,17.19-4,17.19-13.31,5.25-26,.95-26,.95.23-11.18.57-38.1,22.06-44.15,13.58-3.84,18.14-9.24,19.62-12.89h28.6a.5.5,0,0,0,.49-.5v-1.71a.51.51,0,0,0-.49-.53H677.41V965a3.57,3.57,0,0,1,1.06-2.51,4,4,0,0,1,1.56-.92h23.16a.49.49,0,0,0,.53-.49v-1.71a.51.51,0,0,0-.53-.5H684v-1.37a3.49,3.49,0,0,1,.69-2.16,2.11,2.11,0,0,1,1.67-.88h5.06v-9.7a11.91,11.91,0,0,0,2.4.23,12.2,12.2,0,0,0,6.61-1.9,13.46,13.46,0,0,1-3,.38,12.34,12.34,0,0,1-11.07-6.88L655.27,940a8.82,8.82,0,0,1-7-2.2,9,9,0,0,1,0-13.35,9.13,9.13,0,0,1,7-2.21l31.07,3.46a12.35,12.35,0,0,1,22.14,0l31.07-3.46a9,9,0,0,1,7,15.56,8.82,8.82,0,0,1-7,2.2l-31.07-3.42a12.47,12.47,0,0,1-5.1,5.32v12.55h5.06a2.16,2.16,0,0,1,1.67.88,3.49,3.49,0,0,1,.69,2.16v4h3a3.52,3.52,0,0,1,3.54,3.54v4.79h-3.09c1.37,5.09,7.61,8.4,13.5,8.4h41.08v12.21c-7.46,0-16.62.08-19.93.3-11.3.8-21.94,4.45-32.36,8.64-7.88,3.15-16.7,4.75-25,3-5.21-1.14-10.42-3.76-15.89-3.84h-.19a14.46,14.46,0,0,0-8.37,2.51,12.35,12.35,0,0,0-3.19,3.31A1,1,0,0,0,664.06,1005.59Z"/><path class="cls-24" d="M388.2,574.8c-2.32-2.32-4.68-4.64-7-6.92v77.35h14.3V581.15A63.25,63.25,0,0,1,388.2,574.8Zm601.44-14.2c-.22.21-.43.42-.65.65l-2.73,2.69-2.06,2-8.15,8.15v71.09h14.3V559.9Z"/></g></svg>